<?xml version="1.0" standalone="no"?><!DOCTYPE svg PUBLIC "-//W3C//DTD SVG 1.1//EN" "http://www.w3.org/Graphics/SVG/1.1/DTD/svg11.dtd"><svg t="1652689116781" class="icon" viewBox="0 0 1024 1024" version="1.1" xmlns="http://www.w3.org/2000/svg" p-id="8804" xmlns:xlink="http://www.w3.org/1999/xlink" width="32" height="32"><defs><style type="text/css">@font-face { font-family: feedback-iconfont; src: url("//at.alicdn.com/t/font_1031158_u69w8yhxdu.woff2?t=1630033759944") format("woff2"), url("//at.alicdn.com/t/font_1031158_u69w8yhxdu.woff?t=1630033759944") format("woff"), url("//at.alicdn.com/t/font_1031158_u69w8yhxdu.ttf?t=1630033759944") format("truetype"); }
</style></defs><path d="M806.826667 329.472a21.333333 21.333333 0 0 1 10.666666 18.474667v328.106666a21.333333 21.333333 0 0 1-10.666666 18.474667l-284.16 164.096a21.333333 21.333333 0 0 1-21.333334 0l-284.16-164.096a21.333333 21.333333 0 0 1-10.666666-18.474667v-328.106666a21.333333 21.333333 0 0 1 10.666666-18.474667l284.16-164.096a21.333333 21.333333 0 0 1 21.333334 0l284.16 164.096zM554.666667 109.952a85.333333 85.333333 0 0 0-85.333334 0L185.173333 274.048a85.333333 85.333333 0 0 0-42.666666 73.898667v328.106666a85.333333 85.333333 0 0 0 42.666666 73.898667L469.333333 914.048a85.333333 85.333333 0 0 0 85.333334 0l284.16-164.096a85.333333 85.333333 0 0 0 42.666666-73.898667v-328.106666a85.333333 85.333333 0 0 0-42.666666-73.898667L554.666667 109.952z" fill="#999999" p-id="8805"></path><path d="M512 618.666667a106.666667 106.666667 0 1 1 0-213.333334 106.666667 106.666667 0 0 1 0 213.333334z m0 64a170.666667 170.666667 0 1 0 0-341.333334 170.666667 170.666667 0 0 0 0 341.333334z" fill="#999999" p-id="8806"></path></svg>