<?xml version="1.0" standalone="no"?><!DOCTYPE svg PUBLIC "-//W3C//DTD SVG 1.1//EN" "http://www.w3.org/Graphics/SVG/1.1/DTD/svg11.dtd"><svg t="1654333714267" class="icon" viewBox="0 0 1024 1024" version="1.1" xmlns="http://www.w3.org/2000/svg" p-id="2860" xmlns:xlink="http://www.w3.org/1999/xlink" width="32" height="32"><defs><style type="text/css">@font-face { font-family: feedback-iconfont; src: url("//at.alicdn.com/t/font_1031158_u69w8yhxdu.woff2?t=1630033759944") format("woff2"), url("//at.alicdn.com/t/font_1031158_u69w8yhxdu.woff?t=1630033759944") format("woff"), url("//at.alicdn.com/t/font_1031158_u69w8yhxdu.ttf?t=1630033759944") format("truetype"); }
</style></defs><path d="M886.745 249.567c-12.864-12.064-33.152-11.488-45.217 1.408L414.776 705.344l-233.12-229.696c-12.608-12.416-32.864-12.288-45.28 0.32-12.416 12.575-12.256 32.863 0.352 45.248l256.48 252.672c0.096 0.096 0.224 0.128 0.319 0.224 0.097 0.096 0.129 0.224 0.225 0.32 2.016 1.92 4.448 3.008 6.784 4.288 1.151 0.672 2.144 1.664 3.359 2.144 3.776 1.472 7.776 2.24 11.744 2.24 4.192 0 8.384-0.832 12.288-2.496 1.313-0.544 2.336-1.664 3.552-2.368 2.4-1.408 4.896-2.592 6.944-4.672 0.096-0.096 0.128-0.256 0.224-0.352 0.064-0.097 0.192-0.129 0.288-0.225l449.185-478.208C900.28 281.951 899.608 261.695 886.745 249.567z" p-id="2861"></path></svg>