<?xml version="1.0" standalone="no"?><!DOCTYPE svg PUBLIC "-//W3C//DTD SVG 1.1//EN" "http://www.w3.org/Graphics/SVG/1.1/DTD/svg11.dtd"><svg t="1651338636028" class="icon" viewBox="0 0 1024 1024" version="1.1" xmlns="http://www.w3.org/2000/svg" p-id="6078" xmlns:xlink="http://www.w3.org/1999/xlink" width="32" height="32"><defs><style type="text/css">@font-face { font-family: feedback-iconfont; src: url("//at.alicdn.com/t/font_1031158_u69w8yhxdu.woff2?t=1630033759944") format("woff2"), url("//at.alicdn.com/t/font_1031158_u69w8yhxdu.woff?t=1630033759944") format("woff"), url("//at.alicdn.com/t/font_1031158_u69w8yhxdu.ttf?t=1630033759944") format("truetype"); }
</style></defs><path d="M512 64c234.656 213.344 352 394.656 352 544 0 194.4-157.6 352-352 352S160 802.4 160 608C160 458.656 277.344 277.344 512 64z m0 87.392l-5.376 5.184C316.768 338.752 224 490.88 224 608a288 288 0 0 0 576 0c0-114.56-88.864-262.816-270.624-439.84L512 151.36zM544 416l-38.4 96H608l-63.744 191.936h-64L522.72 576H416l64-160h64z" fill="#383F4A" p-id="6079"></path></svg>