<?xml version="1.0" standalone="no"?><!DOCTYPE svg PUBLIC "-//W3C//DTD SVG 1.1//EN" "http://www.w3.org/Graphics/SVG/1.1/DTD/svg11.dtd"><svg t="1651414910510" class="icon" viewBox="0 0 1024 1024" version="1.1" xmlns="http://www.w3.org/2000/svg" p-id="1484" xmlns:xlink="http://www.w3.org/1999/xlink" width="32" height="32"><defs><style type="text/css">@font-face { font-family: feedback-iconfont; src: url("//at.alicdn.com/t/font_1031158_u69w8yhxdu.woff2?t=1630033759944") format("woff2"), url("//at.alicdn.com/t/font_1031158_u69w8yhxdu.woff?t=1630033759944") format("woff"), url("//at.alicdn.com/t/font_1031158_u69w8yhxdu.ttf?t=1630033759944") format("truetype"); }
</style></defs><path d="M845.21415111 209.07804445H334.90716445c-24.46677333 0-47.76846222 11.06830222-63.49710223 30.29219555L72.18062222 478.21255111l-0.58254222 0.58254222c-6.99050667 9.32067555-10.48576 20.97152-10.48576 33.20490667 0 12.81592889 4.66033778 25.63185778 12.81592889 36.11761778L271.41006222 785.79484445c15.72864 18.64135111 39.03032889 29.70965333 63.49710223 29.70965333h510.30698666c44.85575111 0 80.97336889-36.11761778 80.97336889-80.97336889V290.05141333c0-44.85575111-36.11761778-80.97336889-80.97336889-80.97336888zM684.43249778 623.26556445c-5.82542222 5.82542222-13.39847111 8.73813333-20.97152 8.73813333-8.15559111 0-15.72864-2.91271111-20.97152-8.73813333l-68.73998223-68.73998223-68.73998222 68.73998223c-5.82542222 5.82542222-13.39847111 8.73813333-20.97152 8.73813333-16.31118222 0-29.70965333-13.39847111-29.70965333-29.70965333 0-8.15559111 2.91271111-15.72864 8.73813333-20.97152l68.73998222-68.73998223-69.32252444-69.32252444c-11.65084445-11.65084445-11.65084445-30.29219555 0-41.94304s30.29219555-11.65084445 41.94304 0l68.73998222 68.73998222 68.73998222-68.73998222c11.65084445-11.65084445 30.29219555-11.65084445 41.94304 0.58254222a29.53443555 29.53443555 0 0 1 0 41.94304L615.69251555 512l68.73998223 68.73998222c11.65084445 11.65084445 11.65084445 30.87473778 0 42.52558223z" fill="#2C2C2C" p-id="1485"></path></svg>